<svg width="10" height="10" viewBox="0 0 10 10" version="1.1" xmlns="http://www.w3.org/2000/svg" xmlns:xlink="http://www.w3.org/1999/xlink">
<title>Rectangle 2</title>
<desc>Created using Figma</desc>
<g id="Canvas" transform="translate(-826 777)">
<g id="Rectangle 2">
<mask id="mask0_outline_ins">
<use xlink:href="#path0_fill" fill="white" transform="translate(826 -777)"/>
</mask>
<g mask="url(#mask0_outline_ins)">
<use xlink:href="#path1_stroke_2x" transform="translate(826 -777)"/>
</g>
</g>
</g>
<defs>
<path id="path0_fill" fill-rule="evenodd" d="M 0 0L 10 0L 10 10L 0 10L 0 0Z"/>
<path id="path1_stroke_2x" d="M 0 0L 0 -1L -1 -1L -1 0L 0 0ZM 10 0L 11 0L 11 -1L 10 -1L 10 0ZM 10 10L 10 11L 11 11L 11 10L 10 10ZM 0 10L -1 10L -1 11L 0 11L 0 10ZM 0 1L 10 1L 10 -1L 0 -1L 0 1ZM 9 0L 9 10L 11 10L 11 0L 9 0ZM 10 9L 0 9L 0 11L 10 11L 10 9ZM 1 10L 1 0L -1 0L -1 10L 1 10Z"/>
</defs>
</svg>
